<?xml version="1.0" standalone="no"?>
<!DOCTYPE svg PUBLIC "-//W3C//DTD SVG 20010904//EN"
 "http://www.w3.org/TR/2001/REC-SVG-20010904/DTD/svg10.dtd">
<svg version="1.0" xmlns="http://www.w3.org/2000/svg"
 width="225.000000pt" height="225.000000pt" viewBox="0 0 225.000000 225.000000"
 preserveAspectRatio="xMidYMid meet">
<metadata>
Created by potrace 1.14, written by Peter Selinger 2001-2017
</metadata>
<g transform="translate(0.000000,225.000000) scale(0.100000,-0.100000)"
fill="#000000" stroke="none">
<path d="M143 2234 c-18 -9 -40 -28 -50 -43 -17 -25 -18 -81 -18 -1066 0 -987
1 -1041 18 -1067 10 -14 34 -34 54 -43 44 -21 96 -9 134 31 l24 26 5 281 5
282 75 38 c116 58 184 72 340 71 158 -1 212 -14 479 -120 232 -93 297 -108
441 -101 130 6 214 28 324 85 92 48 181 134 195 189 8 29 11 228 9 642 l-3
601 -28 27 c-42 43 -92 38 -154 -13 -109 -93 -220 -127 -408 -128 -151 -1
-167 3 -379 101 -212 98 -270 115 -411 121 -183 7 -298 -13 -467 -83 -16 -6
-18 -1 -18 48 0 63 -23 101 -76 123 -42 18 -51 17 -91 -2z m300 -375 c51 -23
52 -26 55 -431 2 -249 -1 -391 -8 -418 -18 -68 -94 -91 -147 -46 l-28 24 0
417 0 417 28 24 c30 26 62 30 100 13z"/>
</g>
</svg>
